<svg xmlns="http://www.w3.org/2000/svg" width="61" height="60" viewBox="0 0 61 60">
  <path fill="#009CDC" d="M10,52.8 L11,58.8 C11.1,59.3 10.7,59.9 10.2,60 C10.1,60 10.1,60 10,60 C9.5,60 9.1,59.7 9,59.2 L8.1,54 C6.2,54.1 3.8,54.3 2.3,54.9 C1.8,55.1 1.2,54.8 1,54.3 C0.8,53.8 1.1,53.2 1.6,53 C4.2,52.1 8.2,52 9,52 C9.5,52 9.9,52.4 10,52.8 Z M26.4,53.1 C24.4,52.3 21.2,52 19.1,52 C18.6,52 18.2,52.3 18.1,52.8 L17.1,58.8 C17,59.3 17.4,59.9 17.9,60 C18,60 18,60 18.1,60 C18.6,60 19,59.7 19.1,59.2 L20,54.1 C22,54.2 24.4,54.4 25.8,55 C26.3,55.2 26.9,55 27.1,54.4 C27.1,53.9 26.9,53.3 26.4,53.1 Z M14,52 C12.9,52 12,52.9 12,54 C12,54.7 12.4,55.4 13,55.7 L13,59 C13,59.6 13.4,60 14,60 C14.6,60 15,59.6 15,59 L15,55.7 C15.6,55.4 16,54.7 16,54 C16,52.9 15.1,52 14,52 Z M4,40 L4,38 C4,37.3 4.4,36.6 5,36.3 L5,36 C5,32.7 7.7,30 11,30 L15,30 C18.3,30 21,32.7 21,36 L21,36.3 C21.6,36.6 22,37.3 22,38 L22,40 C22,40.8 21.6,41.4 21,41.8 C20.8,43.7 20,45.4 19.9,45.5 C19,47.3 17.6,50 13,50 C8.4,50 7,47.3 6.1,45.4 C6.1,45.3 5.2,43.6 5,41.7 C4.4,41.4 4,40.8 4,40 Z M6,40 C6.6,40 7,40.4 7,41 C7,42.7 7.9,44.5 7.9,44.6 C8.9,46.7 9.9,48 13,48 C16.1,48 17.1,46.6 18.1,44.6 C18.1,44.6 19,42.8 19,41 C19,40.4 19.4,40 20,40 L20,38 C19.4,38 19,37.6 19,37 L19,36 C19,33.8 17.2,32 15,32 L11,32 C8.8,32 7,33.8 7,36 L7,37 C7,37.6 6.6,38 6,38 L6,40 Z M15,40 L16,40 C16.6,40 17,39.6 17,39 C17,38.4 16.6,38 16,38 L15,38 C14.4,38 14,38.4 14,39 C14,39.6 14.4,40 15,40 Z M10,40 L11,40 C11.6,40 12,39.6 12,39 C12,38.4 11.6,38 11,38 L10,38 C9.4,38 9,38.4 9,39 C9,39.6 9.4,40 10,40 Z M48,32 C47.4,32 47,32.4 47,33 C47,39.1 42.1,44 36,44 L28.4,44 L32.7,39.7 C33.1,39.3 33.1,38.7 32.7,38.3 C32.3,37.9 31.7,37.9 31.3,38.3 L25.3,44.3 C25.2,44.4 25.1,44.5 25.1,44.6 C25,44.8 25,45.1 25.1,45.4 C25.2,45.5 25.2,45.6 25.3,45.7 L31.3,51.7 C31.5,51.9 31.8,52 32,52 C32.2,52 32.5,51.9 32.7,51.7 C33.1,51.3 33.1,50.7 32.7,50.3 L28.4,46 L36,46 C43.2,46 49,40.2 49,33 C49,32.4 48.6,32 48,32 Z M12,28 C12.6,28 13,27.6 13,27 L13,21 C13,14.9 17.9,10 24,10 L31.6,10 L27.3,14.3 C26.9,14.7 26.9,15.3 27.3,15.7 C27.5,15.9 27.8,16 28,16 C28.2,16 28.5,15.9 28.7,15.7 L34.7,9.7 C34.8,9.6 34.9,9.5 34.9,9.4 C35,9.2 35,8.9 34.9,8.6 C34.8,8.5 34.8,8.4 34.7,8.3 L28.7,2.3 C28.3,1.9 27.7,1.9 27.3,2.3 C26.9,2.7 26.9,3.3 27.3,3.7 L31.6,8 L24,8 C16.8,8 11,13.8 11,21 L11,27 C11,27.6 11.4,28 12,28 Z M35.1,24.4 C35.3,24.9 35.9,25.2 36.4,25 C37.9,24.4 40.3,24.2 42.2,24.1 L43.1,29.2 C43.2,29.7 43.6,30 44.1,30 C44.2,30 44.2,30 44.3,30 C44.8,29.9 45.2,29.4 45.1,28.8 L44.1,22.8 C44,22.3 43.6,22 43.1,22 C42.3,22 38.3,22.1 35.8,23.1 C35.1,23.3 34.9,23.8 35.1,24.4 Z M60.4,23.1 C58.4,22.3 55.2,22 53.1,22 C52.6,22 52.2,22.3 52.1,22.8 L51.1,28.8 C51,29.3 51.4,29.9 51.9,30 C52,30 52,30 52.1,30 C52.6,30 53,29.7 53.1,29.2 L54,24.1 C56,24.2 58.4,24.4 59.8,25 C60.3,25.2 60.9,25 61.1,24.4 C61.1,23.9 60.9,23.3 60.4,23.1 Z M48,22 C46.9,22 46,22.9 46,24 C46,24.7 46.4,25.4 47,25.7 L47,29 C47,29.6 47.4,30 48,30 C48.6,30 49,29.6 49,29 L49,25.7 C49.6,25.4 50,24.7 50,24 C50,22.9 49.1,22 48,22 Z M38,10 L38,8 C38,7.3 38.4,6.6 39,6.3 L39,6 C39,2.7 41.7,0 45,0 L49,0 C52.3,0 55,2.7 55,6 L55,6.3 C55.6,6.6 56,7.3 56,8 L56,10 C56,10.8 55.6,11.4 55,11.8 C54.8,13.7 54,15.4 53.9,15.5 C53,17.3 51.6,20 47,20 C42.4,20 41,17.3 40.1,15.4 C40.1,15.3 39.2,13.6 39,11.7 C38.4,11.4 38,10.8 38,10 Z M40,10 C40.6,10 41,10.4 41,11 C41,12.7 41.9,14.5 41.9,14.6 C42.9,16.7 43.9,18 47,18 C50.1,18 51.1,16.6 52.1,14.6 C52.1,14.6 53,12.8 53,11 C53,10.4 53.4,10 54,10 L54,8 C53.4,8 53,7.6 53,7 L53,6 C53,3.8 51.2,2 49,2 L45,2 C42.8,2 41,3.8 41,6 L41,7 C41,7.6 40.6,8 40,8 L40,10 Z M49,10 L50,10 C50.6,10 51,9.6 51,9 C51,8.4 50.6,8 50,8 L49,8 C48.4,8 48,8.4 48,9 C48,9.6 48.4,10 49,10 Z M44,10 L45,10 C45.6,10 46,9.6 46,9 C46,8.4 45.6,8 45,8 L44,8 C43.4,8 43,8.4 43,9 C43,9.6 43.4,10 44,10 Z" transform="translate(-1)"/>
</svg>
