<svg xmlns="http://www.w3.org/2000/svg" width="60" height="60" viewBox="0 0 60 60">
  <path fill="#009CDC" d="M55,0 L5,0 C2.2,0 0,2.2 0,5 L0,31 C0,33.8 2.2,36 5,36 L55,36 C57.8,36 60,33.8 60,31 L60,5 C60,2.2 57.8,0 55,0 Z M58,31 C58,32.7 56.7,34 55,34 L5,34 C3.3,34 2,32.7 2,31 L2,5 C2,3.3 3.3,2 5,2 L55,2 C56.7,2 58,3.3 58,5 L58,31 Z M10,52 C13.3,52 16,49.3 16,46 L16,43 C16,40.2 13.8,38 11,38 L9,38 C6.2,38 4,40.2 4,43 L4,46 C4,49.3 6.7,52 10,52 Z M6,43 C6,41.3 7.3,40 9,40 L11,40 C12.7,40 14,41.3 14,43 L14,46 C14,48.2 12.2,50 10,50 C7.8,50 6,48.2 6,46 L6,43 Z M50,52 C53.3,52 56,49.3 56,46 L56,43 C56,40.2 53.8,38 51,38 L49,38 C46.2,38 44,40.2 44,43 L44,46 C44,49.3 46.7,52 50,52 Z M46,43 C46,41.3 47.3,40 49,40 L51,40 C52.7,40 54,41.3 54,43 L54,46 C54,48.2 52.2,50 50,50 C47.8,50 46,48.2 46,46 L46,43 Z M30,52 C33.3,52 36,49.3 36,46 L36,43 C36,40.2 33.8,38 31,38 L29,38 C26.2,38 24,40.2 24,43 L24,46 C24,49.3 26.7,52 30,52 Z M26,43 C26,41.3 27.3,40 29,40 L31,40 C32.7,40 34,41.3 34,43 L34,46 C34,48.2 32.2,50 30,50 C27.8,50 26,48.2 26,46 L26,43 Z M60,59 C60,59.6 59.6,60 59,60 C58.4,60 58,59.6 58,59 C58,57.3 56.7,56 55,56 L45,56 C43.6,56 41.9,56.4 40.9,59.3 C40.8,59.7 40.4,60 40,60 C39.6,60 39.2,59.7 39.1,59.3 C38.1,56.4 36.4,56 35,56 L25,56 C23.6,56 21.9,56.4 20.9,59.3 C20.8,59.7 20.4,60 20,60 C19.6,60 19.2,59.7 19.1,59.3 C18.1,56.4 16.4,56 15,56 L5,56 C3.3,56 2,57.3 2,59 C2,59.6 1.6,60 1,60 C0.4,60 0,59.6 0,59 C0,56.2 2.2,54 5,54 L15,54 C17.2,54 18.9,54.9 20,56.7 C21.1,54.9 22.8,54 25,54 L35,54 C37.2,54 38.9,54.9 40,56.7 C41.1,54.9 42.8,54 45,54 L55,54 C57.8,54 60,56.2 60,59 Z M47.9,30.7 C48.1,31.2 47.8,31.8 47.3,32 C47.2,32 47.1,32 47,32 C46.6,32 46.2,31.7 46.1,31.3 C45.4,29.1 42.2,28.1 35.9,28 L35.5,31.1 C35.4,31.6 34.9,32 34.4,32 C33.9,31.9 33.5,31.4 33.5,30.9 L34,26.9 C34.1,26.4 34.5,26 35,26 L35.2,26 C41,26 46.6,26.6 47.9,30.7 Z M26,26.9 L26.5,30.9 C26.6,31.4 26.2,32 25.6,32 C25,32.1 24.5,31.7 24.5,31.1 L24.1,28 C17.8,28.1 14.7,29.1 13.9,31.3 C13.8,31.7 13.4,32 13,32 C12.9,32 12.8,32 12.7,31.9 C12.2,31.7 11.9,31.2 12.1,30.6 C13.5,26.5 19.1,25.9 25.1,25.9 C25.5,26 25.9,26.4 26,26.9 Z M32,28 C32,28.7 31.6,29.4 31,29.7 L31,31 C31,31.6 30.6,32 30,32 C29.4,32 29,31.6 29,31 L29,29.7 C28.4,29.4 28,28.7 28,28 C28,26.9 28.9,26 30,26 C31.1,26 32,26.9 32,28 Z M22,15.8 C22.2,17.7 23,19.4 23.1,19.5 C24,21.3 25.4,24 30,24 C34.6,24 36,21.3 36.9,19.4 C36.9,19.3 37.8,17.6 38,15.7 C38.6,15.4 39,14.7 39,13.9 L39,11.9 C39,11.2 38.6,10.5 38,10.2 L38,10 C38,6.7 35.3,4 32,4 L28,4 C24.7,4 22,6.7 22,10 L22,10.3 C21.4,10.6 21,11.3 21,12 L21,14 C21,14.8 21.4,15.4 22,15.8 Z M23,12 C23.6,12 24,11.6 24,11 L24,10 C24,7.8 25.8,6 28,6 L32,6 C34.2,6 36,7.8 36,10 L36,11 C36,11.6 36.4,12 37,12 L37,14 C36.4,14 36,14.4 36,15 C36,16.7 35.1,18.5 35.1,18.6 C34.1,20.7 33.1,22 30,22 C26.9,22 25.9,20.6 24.9,18.6 C24.9,18.6 24,16.8 24,15 C24,14.4 23.6,14 23,14 L23,12 Z M31,13 C31,12.4 31.4,12 32,12 L33,12 C33.6,12 34,12.4 34,13 C34,13.6 33.6,14 33,14 L32,14 C31.4,14 31,13.6 31,13 Z M26,13 C26,12.4 26.4,12 27,12 L28,12 C28.6,12 29,12.4 29,13 C29,13.6 28.6,14 28,14 L27,14 C26.4,14 26,13.6 26,13 Z"/>
</svg>
