<svg xmlns="http://www.w3.org/2000/svg" width="60" height="60" viewBox="0 0 60 60">
  <path fill="#009CDC" d="M60,3 L60,7 C60,7.6 59.6,8 59,8 L58,8 L58,31 C58,31.6 57.6,32 57,32 C56.4,32 56,31.6 56,31 L56,7 C56,6.4 56.4,6 57,6 L58,6 L58,4 L2,4 L2,6 L53,6 C53.6,6 54,6.4 54,7 C54,7.6 53.6,8 53,8 L1,8 C0.4,8 0,7.6 0,7 L0,3 C0,2.4 0.4,2 1,2 L29,2 L29,1 C29,0.4 29.4,0 30,0 C30.6,0 31,0.4 31,1 L31,2 L59,2 C59.6,2 60,2.4 60,3 Z M13,16 L21,16 C21.6,16 22,15.6 22,15 C22,14.4 21.6,14 21,14 L13,14 C12.4,14 12,14.4 12,15 C12,15.6 12.4,16 13,16 Z M13,22 L31,22 C31.6,22 32,21.6 32,21 C32,20.4 31.6,20 31,20 L13,20 C12.4,20 12,20.4 12,21 C12,21.6 12.4,22 13,22 Z M29,16 C29.6,16 30,15.6 30,15 C30,14.4 29.6,14 29,14 L25,14 C24.4,14 24,14.4 24,15 C24,15.6 24.4,16 25,16 L29,16 Z M13,28 L16,28 C16.6,28 17,27.6 17,27 C17,26.4 16.6,26 16,26 L13,26 C12.4,26 12,26.4 12,27 C12,27.6 12.4,28 13,28 Z M31,26 L21,26 C20.4,26 20,26.4 20,27 C20,27.6 20.4,28 21,28 L31,28 C31.6,28 32,27.6 32,27 C32,26.4 31.6,26 31,26 Z M49.1,32 C48.6,32 48.1,32.3 48,32.9 L45,54.9 C44.9,55.4 45.3,56 45.9,56 C45.9,56 46,56 46,56 C46.5,56 46.9,55.6 47,55.1 L49.9,34 C53.4,34.1 55.7,34.7 56.9,36 C57.6,36.7 58,37.7 58,39 L58,55 C58,55.6 58.4,56 59,56 C59.6,56 60,55.6 60,55 L60,39 C60,37.2 59.4,35.7 58.3,34.6 C56.6,32.8 53.6,32 49.1,32 Z M40,32.9 L43,54.9 C43.1,55.4 42.7,56 42.1,56 C41.6,56.1 41,55.7 41,55.1 L38.1,34 L22,34 L22,38 L33,38 C33.5,38 33.9,38.4 34,38.9 L36,58.9 C36.1,59.4 35.7,59.9 35.1,60 C35.1,60 35,60 35,60 C34.5,60 34.1,59.6 34,59.1 L32.1,40 L19,40 C14.3,40 12,35.5 12,33 C12,32.4 12.4,32 13,32 L39,32 C39.5,32 39.9,32.4 40,32.9 Z M20,34 L14.2,34 C14.7,35.6 16.2,38 19,38 L20,38 L20,34 Z M46,34 C46,32.9 45.1,32 44,32 C42.9,32 42,32.9 42,34 C42,34.7 42.4,35.4 43,35.7 L43,43 C43,43.6 43.4,44 44,44 C44.6,44 45,43.6 45,43 L45,35.7 C45.6,35.4 46,34.7 46,34 Z M52,16 L52,16.3 C52.6,16.6 53,17.3 53,18 L53,20 C53,20.8 52.6,21.4 52,21.8 C51.8,23.7 51,25.4 50.9,25.5 C50,27.3 48.6,30 44,30 C39.4,30 38,27.3 37.1,25.4 C37.1,25.3 36.2,23.6 36,21.7 C35.4,21.4 35,20.7 35,19.9 L35,17.9 C35,17.2 35.4,16.5 36,16.2 L36,16 C36,12.7 38.7,10 42,10 L46,10 C49.3,10 52,12.7 52,16 Z M51,18 C50.4,18 50,17.6 50,17 L50,16 C50,13.8 48.2,12 46,12 L42,12 C39.8,12 38,13.8 38,16 L38,17 C38,17.6 37.6,18 37,18 L37,20 C37.6,20 38,20.4 38,21 C38,22.7 38.9,24.5 38.9,24.6 C39.9,26.7 40.9,28 44,28 C47.1,28 48.1,26.6 49.1,24.6 C49.1,24.6 50,22.8 50,21 C50,20.4 50.4,20 51,20 L51,18 Z M47,18 L46,18 C45.4,18 45,18.4 45,19 C45,19.6 45.4,20 46,20 L47,20 C47.6,20 48,19.6 48,19 C48,18.4 47.6,18 47,18 Z M42,18 L41,18 C40.4,18 40,18.4 40,19 C40,19.6 40.4,20 41,20 L42,20 C42.6,20 43,19.6 43,19 C43,18.4 42.6,18 42,18 Z M53,44 C52.4,44 52,44.4 52,45 L52,59 C52,59.6 52.4,60 53,60 C53.6,60 54,59.6 54,59 L54,45 C54,44.4 53.6,44 53,44 Z M30,44 L7,44 C5.3,44 4,42.7 4,41 L4,11 C4,10.4 3.6,10 3,10 C2.4,10 2,10.4 2,11 L2,41 C2,43.8 4.2,46 7,46 L30,46 C30.6,46 31,45.6 31,45 C31,44.4 30.6,44 30,44 Z"/>
</svg>
