<?xml version="1.0" encoding="utf-8"?>
<!-- Generator: Adobe Illustrator 21.1.0, SVG Export Plug-In . SVG Version: 6.00 Build 0)  -->
<svg version="1.1" id="Layer_1" xmlns="http://www.w3.org/2000/svg" xmlns:xlink="http://www.w3.org/1999/xlink" x="0px" y="0px"
	 viewBox="0 0 249 230.4" style="enable-background:new 0 0 249 230.4;" xml:space="preserve">
<style type="text/css">
	.st0{fill:#FFFFFF;}
	.st1{fill:#009CDC;}
</style>
<g>
	<path class="st0" d="M15.8,136.1L0,102l7.2-2.4c2.6,6.2,7.3,18,9.3,23.5l0.2-0.1c-1.6-7.2-3.9-17.1-5.6-24.7l5.9-1.9
		c3,6.7,7,16,10.1,23.1l0.3-0.1c-1.9-6.7-5-18.3-6.5-24.3l6.7-2.2l7.3,37l-7.1,2.3c-2.8-6-5.9-12.6-9-19.7l-0.2,0.1
		c1.7,7.4,2.9,14.6,4.3,21.2L15.8,136.1z"/>
	<path class="st0" d="M59.2,95.7l3.8,16.9c1.6,7.2-1.1,11.1-7.4,12.5c-6,1.4-9.9-1.1-11.5-8.2l-3.9-17.2c-1.6-7,1.6-11,7.2-12.2
		C53,86.3,57.5,88.4,59.2,95.7z M47.1,97.6l4.2,18.6c0.5,2.3,1.5,3.3,3.1,2.9c1.6-0.4,2.1-1.6,1.6-4l-4.2-18.7
		c-0.5-2.3-1.4-3.3-3.2-2.9C47.2,93.9,46.6,95.2,47.1,97.6z"/>
	<path class="st0" d="M79.8,103.7l2.1,16.1l-7.1,0.9l-4.9-37l9.2-1.2c6.2-0.8,9.6,1.5,10.5,8l0.2,1.3c0.7,5.3-1.2,7.1-2.7,8.1
		c2.5,0.8,3.8,2.4,4.4,7.5c0.5,3.6,1.1,9,1.7,10.9l-6.9,0.9c-0.7-1.6-1.3-6.4-1.9-11.2c-0.6-4.2-1.1-4.8-3.8-4.5L79.8,103.7z
		 M79.1,98l0.9-0.1c2.4-0.3,3.3-1.2,2.8-4.6l-0.2-1.8c-0.3-2.5-1-3.7-3.6-3.3l-1.1,0.1L79.1,98z"/>
	<path class="st0" d="M101.2,80.1l8.8-0.4c7.7-0.3,10.5,3.1,10.8,10.8l0.6,14c0.3,6.4-0.8,12.1-9.3,12.5l-9.3,0.4L101.2,80.1z
		 M109.8,111.3l1.4-0.1c2.8-0.1,3.2-2,3.1-4.9l-0.7-16.7c-0.1-2.8-0.8-4.2-3.5-4.1l-1.3,0.1L109.8,111.3z"/>
	<path class="st0" d="M150.5,105.3l-0.1,2c-0.2,4.7-1.4,10.7-9.9,10.3c-6.3-0.3-8.9-3.8-8.6-10.6l0.8-18.3c0.3-6.5,3.7-9.8,9.7-9.5
		c7.9,0.4,8.9,5.6,8.7,10.5L151,92l-7.2-0.3l0.1-3.2c0.1-2.1-0.3-3.1-1.8-3.2c-1.5-0.1-2,0.9-2.1,3l-0.9,19.7
		c-0.1,2,0.2,3.4,1.8,3.4c1.6,0.1,2.1-1.1,2.2-3.4l0.1-3.1L150.5,105.3z"/>
	<path class="st0" d="M166.2,110.3l-2.1,8.7l-7.3-0.9l10-36.4l10.6,1.4l0.6,37.8l-7.4-1l0.1-9L166.2,110.3z M171,104.5
		c0.1-4.8,0.3-12.1,0.4-15.7l-0.3,0c-0.5,2.6-2.4,10.8-3.5,15.3L171,104.5z"/>
	<path class="st0" d="M207.8,114.9c1.3-5.6,3.2-13.6,4.3-18.1l-0.2,0c-2.5,7.1-7.5,21.5-10.3,28.9l-5.9-1.4c1-8.1,3-23.5,3.8-30.5
		l-0.2-0.1c-0.9,4.3-2.6,12.2-4,18.5l-2.6,11.3l-6.4-1.5l8.5-36.4l10,2.3c-0.7,7.1-1.7,16.5-2.4,21.5l0.1,0
		c1.8-5.1,4.8-12.5,7.8-20.3l10,2.3l-8.5,36.4l-6.7-1.6L207.8,114.9z"/>
	<path class="st0" d="M233.5,95.7l9.1,3.1c5.9,2,7.7,6.1,5.6,12.4l-0.7,2.2c-2.1,6.2-5.7,9.1-12.4,6.9l-2-0.7l-4.7,13.9l-6.8-2.3
		L233.5,95.7z M234.9,114l1.1,0.4c2.6,0.9,3.6-0.4,4.6-3.3l0.8-2.4c0.8-2.3,0.7-3.9-1.5-4.7l-1.4-0.5L234.9,114z"/>
</g>
<path class="st0" d="M110.5,0l-3.3,3.2c4.6,5.7,3.7,14.3,3,17.9h-11l-14.9,9.5H60.3l0.7,4.6h24.7l14.9-9.5h13.3l0.5-1.7
	c0.1-0.3,0.8-3.2,1-7.1c1.8,6.7,1.5,12.9,1.4,14.6l-2.2,4.3l-2.4,10.3l-3.2,0.9l-3.4,3.4l-0.6,0l0.3-3.2l-1.8-7.1l4.5-6.7l-3.8-2.6
	l-5.7,8.4l0.8,3L85.9,60.6h5.7l8.9-12.3l-0.6,6.9l7.6,0l3.9-4.2l4.7-1.4l2.9-12.4l2.4-4.6l0-0.4c0-0.2,0.6-5.4-0.5-11.9
	C119.5,11.7,115.9,4.6,110.5,0z"/>
<path class="st0" d="M164.5,31.2l-14.9-9.5h-11c-0.6-3.6-1.5-12.2,3.1-17.9l-3.3-3.2c-12.9,11-10.9,31.5-10.8,32.4l0,0.4l2.4,4.6
	l2.9,12.4l4.7,1.4l3.8,3.8l7.8-0.1l-0.7-6.5l8.6,11.8h5.7l-13-17.8l0.8-3l-5.7-8.4l-3.8,2.6l4.5,6.7l-1.8,7.1l0.3,3.2l-0.6,0
	l-3.4-3.4l-3.2-0.9l-2.4-10.3l-2.2-4.3c-0.1-1.6-0.4-7.9,1.4-14.6c0.2,4,0.9,6.9,1,7.1l0.5,1.7h13.3l14.9,9.5h24.6l0.6-4.6H164.5z"
	/>
<path class="st1" d="M126.2,174.7c-15.3,0-27.8,12.5-27.8,27.8c0,15.3,12.5,27.8,27.8,27.8c15.3,0,27.8-12.5,27.8-27.8
	C154,187.2,141.5,174.7,126.2,174.7 M101.2,202.6c0-3.6,0.8-7.1,2.2-10.2l11.9,32.7C106.9,221,101.2,212.5,101.2,202.6 M126.2,227.6
	c-2.5,0-4.8-0.4-7.1-1l7.5-21.8l7.7,21.1c0.1,0.1,0.1,0.2,0.2,0.3C131.9,227.1,129.1,227.6,126.2,227.6 M129.7,190.8
	c1.5-0.1,2.9-0.2,2.9-0.2c1.3-0.2,1.2-2.1-0.2-2.1c0,0-4.1,0.3-6.7,0.3c-2.5,0-6.6-0.3-6.6-0.3c-1.3-0.1-1.5,2-0.2,2.1
	c0,0,1.3,0.2,2.6,0.2l3.9,10.7L120,218l-9.1-27.1c1.5-0.1,2.9-0.2,2.9-0.2c1.3-0.2,1.2-2.1-0.2-2.1c0,0-4.1,0.3-6.7,0.3
	c-0.5,0-1,0-1.6,0c4.5-6.8,12.2-11.3,20.9-11.3c6.5,0,12.4,2.5,16.9,6.6c-0.1,0-0.2,0-0.3,0c-2.5,0-4.2,2.1-4.2,4.4
	c0,2.1,1.2,3.8,2.5,5.9c1,1.7,2.1,3.8,2.1,6.9c0,2.1-0.8,4.6-1.9,8.1l-2.5,8.3L129.7,190.8z M148.2,190.6c2,3.6,3.1,7.7,3.1,12
	c0,9.2-5,17.3-12.4,21.6l7.6-22.1c1.4-3.6,1.9-6.4,1.9-9C148.3,192.2,148.3,191.4,148.2,190.6"/>
<path class="st1" d="M93,166.2c-8.3,1.2-16.6,3-24.8,5.2c-1.7-6.2-3.4-12.4-5.1-18.7c8.9-2.4,18-4.3,27.1-5.7
	C91.1,153.4,92,159.8,93,166.2z"/>
<path class="st1" d="M180.4,171.4c-8.2-2.2-16.5-4-24.8-5.2c0.9-6.4,1.9-12.8,2.8-19.1c9.1,1.4,18.1,3.3,27.1,5.7
	C183.8,159,182.1,165.2,180.4,171.4z"/>
<path class="st1" d="M168.9,164.7c-29.4-6.2-59.8-6.2-89.2,0c-1.9-9.2-3.9-18.5-5.8-27.7c33.2-7,67.6-7,100.8,0
	C172.8,146.2,170.8,155.4,168.9,164.7z"/>
<path class="st0" d="M100.7,154.6c-0.9,0.1-1.8,0.2-2.7,0.3c-0.6-4.9-1.2-9.8-1.7-14.7c1.4-0.2,2.7-0.3,4.1-0.4
	c1.8-0.2,2.6-0.1,3.2,0.3c0.8,0.6,1.2,1.6,1.3,3.4c0.3,3.1-0.6,4.2-3.2,4.4c-0.5,0.1-1.1,0.1-1.6,0.2
	C100.3,150.3,100.5,152.4,100.7,154.6z M100.7,145.9c1.1-0.1,1.4-0.6,1.3-2.1c-0.1-0.9-0.3-1.5-0.6-1.7c-0.2-0.1-0.5-0.2-1.1-0.1
	c-0.3,0-0.6,0.1-0.9,0.1c0.1,1.3,0.3,2.6,0.4,4C100.1,146,100.4,145.9,100.7,145.9z"/>
<path class="st0" d="M114.1,149c0.1,2.2-0.1,3-0.7,3.8c-0.6,0.7-1.7,1.2-3,1.2c-1.3,0.1-2.4-0.2-3.1-0.9c-0.8-0.7-1-1.4-1.2-3.7
	c-0.1-1.9-0.3-3.7-0.4-5.6c-0.2-2.2,0-3,0.6-3.8c0.6-0.7,1.7-1.2,3.1-1.3c1.4-0.1,2.6,0.2,3.3,0.9c0.8,0.7,1,1.5,1.1,3.7
	C114,145.3,114.1,147.1,114.1,149z M108.9,149.2c0.1,2.2,0.4,2.8,1.4,2.7c1-0.1,1.2-0.6,1.1-2.9c-0.1-1.8-0.2-3.7-0.3-5.5
	c-0.1-2.2-0.4-2.8-1.4-2.7c-1,0.1-1.3,0.7-1.1,2.9C108.6,145.6,108.8,147.4,108.9,149.2z"/>
<path class="st0" d="M123.1,140.3c-1.7,3.6-3.4,7.2-5,10.8c1.7,0,3.4-0.1,5.1-0.1c0,0.8,0,1.5,0,2.3c-2.7,0-5.5,0.1-8.2,0.2
	c0-0.6,0-1.2-0.1-1.7c1.5-3.7,3.1-7.3,4.8-10.9c-1.6,0-3.1,0.1-4.7,0.1c0-0.8-0.1-1.5-0.1-2.3c2.7-0.1,5.4-0.2,8.2-0.2
	C123.1,139.2,123.1,139.8,123.1,140.3z"/>
<path class="st0" d="M129.3,153.4c-0.6-2-1.2-4-1.8-6c-0.6-2.1-0.7-2.6-1.3-4.9c0,0.3,0,0.5,0,0.6c0,0.4,0.1,0.8,0.1,1.3
	c0,0.6,0.1,2,0.1,3.2c0,1.9,0,3.8,0,5.8c-0.8,0-1.7,0-2.5,0c0-4.9,0-9.9,0-14.8c1,0,2.1,0,3.1,0c0.6,2,1.3,4.1,1.9,6.1
	c0.4,1.3,0.7,2.8,1,4.4c0-1.7,0-3.2,0-4.4c0-2,0-4,0.1-6c0.9,0,1.8,0,2.7,0.1c-0.2,4.9-0.3,9.8-0.5,14.8
	C131.2,153.5,130.3,153.4,129.3,153.4z"/>
<path class="st0" d="M136.3,149.7c-0.3,1.3-0.5,2.6-0.8,3.9c-0.9,0-1.8-0.1-2.6-0.1c1-4.9,2.1-9.8,3.2-14.6c1.2,0.1,2.5,0.1,3.7,0.2
	c0.7,5,1.3,10,1.8,14.9c-0.9-0.1-1.7-0.1-2.6-0.2c-0.1-1.3-0.3-2.7-0.4-4C137.9,149.8,137.1,149.8,136.3,149.7z M138.1,145.2
	c-0.1-1-0.2-2.3-0.3-3.9c-0.3,2.1-0.4,2.7-0.6,3.9c-0.2,0.8-0.4,1.7-0.5,2.5c0.6,0,1.1,0.1,1.7,0.1
	C138.3,146.9,138.2,146,138.1,145.2z"/>
<path class="st0" d="M147.4,154.6c-0.4-2-0.8-4.1-1.3-6.1c-0.4-2.1-0.5-2.7-0.9-5c0,0.3,0,0.5,0,0.6c0,0.4,0,0.8,0,1.3
	c0,0.6-0.1,2-0.2,3.2c-0.2,1.9-0.3,3.8-0.5,5.7c-0.8-0.1-1.7-0.1-2.5-0.2c0.4-4.9,0.8-9.8,1.2-14.7c1,0.1,2.1,0.2,3.1,0.3
	c0.5,2.1,0.9,4.1,1.4,6.2c0.3,1.3,0.5,2.8,0.7,4.5c0.1-1.7,0.2-3.2,0.3-4.4c0.2-2,0.4-4,0.6-6c0.9,0.1,1.8,0.2,2.7,0.3
	c-0.6,4.9-1.1,9.8-1.7,14.7C149.3,154.8,148.4,154.7,147.4,154.6z M151.4,136.8c-0.9,0.8-1.8,1.5-2.6,2.3c-0.7-0.1-1.4-0.1-2.1-0.2
	c0.5-0.8,0.9-1.6,1.4-2.5C149.2,136.5,150.3,136.7,151.4,136.8z"/>
<g>
	<path class="st1" d="M121.2,68.2h-4.1c0-2,0.4-3,1.9-4.8c0.6-0.8,0.8-1.1,0.8-1.6c0-0.6-0.2-0.9-0.6-0.9c-0.2,0-0.4,0.1-0.5,0.3
		c-0.1,0.2-0.1,0.4-0.1,0.8v0.8h-1.4v-0.6c0-0.8,0.1-1.3,0.4-1.7c0.3-0.5,1-0.8,1.7-0.8c1.3,0,2,0.8,2,2.1c0,0.8-0.2,1.3-1,2.3
		c-1.1,1.4-1.4,1.9-1.6,2.8h2.6V68.2z"/>
	<path class="st1" d="M125.9,65.6c0,1-0.1,1.5-0.3,1.9c-0.3,0.5-1,0.8-1.7,0.8c-0.8,0-1.4-0.3-1.8-0.8c-0.2-0.4-0.3-0.9-0.3-1.9
		v-3.2c0-1,0.1-1.5,0.3-1.9c0.3-0.5,1-0.8,1.8-0.8c0.8,0,1.4,0.3,1.7,0.8c0.2,0.4,0.3,0.9,0.3,1.9V65.6z M123.2,65.7
		c0,0.6,0,0.9,0.1,1.1c0.1,0.2,0.3,0.3,0.5,0.3c0.2,0,0.4-0.1,0.5-0.3c0.1-0.2,0.1-0.5,0.1-1.1v-3.4c0-0.6,0-0.9-0.1-1.1
		c-0.1-0.2-0.3-0.3-0.5-0.3c-0.2,0-0.4,0.1-0.5,0.3c-0.1,0.2-0.1,0.5-0.1,1.1V65.7z"/>
	<path class="st1" d="M129.4,68.2H128v-6.9H127v-0.9c0.6,0,0.9-0.2,1-0.6h1.3V68.2z"/>
	<path class="st1" d="M135.1,65.7c0,1.1-0.1,1.6-0.4,2c-0.3,0.4-0.9,0.6-1.7,0.6c-0.8,0-1.3-0.2-1.7-0.6c-0.3-0.4-0.4-0.9-0.4-2
		c0-1.4,0.2-1.8,1.1-2.1c-0.7-0.2-1-0.7-1-1.9c0-0.8,0.1-1.2,0.4-1.6c0.3-0.3,0.9-0.5,1.5-0.5c0.7,0,1.2,0.2,1.5,0.5
		c0.3,0.3,0.4,0.8,0.4,1.6c0,1.2-0.2,1.6-1,1.9C134.9,63.9,135.1,64.3,135.1,65.7z M132.3,65.7c0,1.1,0.2,1.5,0.7,1.5
		c0.6,0,0.7-0.4,0.7-1.5c0-1.2-0.2-1.5-0.7-1.5C132.5,64.2,132.3,64.6,132.3,65.7z M132.4,61.9c0,0.9,0.1,1.2,0.6,1.2
		c0.5,0,0.6-0.2,0.6-1.1c0-0.9-0.1-1.2-0.6-1.2C132.6,60.7,132.4,61,132.4,61.9z"/>
</g>
</svg>
